<?xml version="1.0" standalone="no"?>
<!DOCTYPE svg PUBLIC "-//W3C//DTD SVG 20010904//EN"
 "http://www.w3.org/TR/2001/REC-SVG-20010904/DTD/svg10.dtd">
<svg version="1.0" xmlns="http://www.w3.org/2000/svg"
 width="400.000000pt" height="400.000000pt" viewBox="0 0 400.000000 400.000000"
 preserveAspectRatio="xMidYMid meet">
<metadata>
Created by potrace 1.14, written by Peter Selinger 2001-2017
</metadata>
<g transform="translate(0.000000,400.000000) scale(0.100000,-0.100000)"
fill="#000000" stroke="none">
<path d="M0 3719 c0 -154 3 -279 7 -277 159 79 200 98 212 98 8 0 22 6 30 14
21 18 237 81 366 105 157 30 328 44 450 38 165 -10 181 -19 128 -69 -71 -65
-179 -124 -313 -171 -307 -107 -500 -152 -718 -169 l-162 -12 2 -1236 c3
-1141 4 -1238 20 -1273 14 -31 15 -43 6 -63 -11 -23 -13 -24 -19 -7 -4 10 -8
-33 -8 -94 l-1 -113 41 0 c22 0 39 -3 37 -7 -2 -5 -20 -41 -41 -80 l-37 -73 0
-165 0 -165 208 0 c192 0 252 7 223 24 -6 4 -11 2 -11 -3 0 -6 -8 -11 -18 -11
-24 0 -135 29 -144 38 -5 5 58 100 88 131 2 2 13 -4 23 -13 15 -14 36 -18 83
-17 37 0 65 -4 69 -11 6 -9 11 -9 21 -1 17 15 298 15 316 0 9 -7 16 -7 24 1
17 17 128 16 128 0 0 -10 3 -10 9 0 9 15 132 26 141 13 8 -12 60 -23 60 -12 0
5 -8 12 -17 14 -10 3 16 5 57 5 41 0 81 -6 89 -12 11 -8 13 -8 7 2 -5 9 3 12
31 13 96 2 200 9 221 14 12 3 22 3 22 0 0 -6 -308 -155 -321 -155 -4 0 -11 -5
-14 -10 -4 -7 448 -10 1349 -10 l1356 0 0 1116 c0 989 -2 1118 -15 1128 -14
10 -15 114 -15 884 l0 872 -1985 0 -1985 0 0 -281z m2240 -205 c99 -40 285
-176 255 -187 -7 -3 -17 -2 -22 1 -5 4 19 -21 54 -56 38 -40 60 -69 56 -78 -6
-17 -6 -18 -113 77 -160 140 -261 188 -412 196 -110 6 -118 14 -66 58 31 26
36 27 108 22 46 -4 100 -16 140 -33z m451 -246 c0 -20 1 -21 8 -4 6 16 12 12
47 -29 46 -55 46 -56 34 -75 -8 -12 -15 -9 -45 20 -19 18 -35 39 -35 46 0 6
-7 14 -15 18 -8 3 -15 15 -15 26 0 28 20 26 21 -2z m364 -101 c39 -14 107 -58
100 -65 -3 -3 -13 2 -23 11 -57 52 -138 56 -222 11 -63 -34 -92 -83 -97 -164
-7 -104 29 -165 125 -214 63 -32 103 -33 164 -3 100 47 145 169 104 282 -4 11
0 7 9 -8 22 -38 30 -122 16 -172 -12 -47 -61 -126 -73 -119 -4 3 -8 1 -8 -4 0
-14 -80 -54 -96 -48 -9 3 -12 1 -9 -4 11 -18 -92 -11 -149 11 -95 35 -166 142
-166 250 0 59 35 140 79 183 68 67 158 86 246 53z m-295 -25 c0 -12 -39 -46
-45 -41 -6 7 24 49 36 49 5 0 9 -4 9 -8z m430 -77 c14 -19 14 -19 -2 -6 -10 7
-18 18 -18 24 0 6 1 8 3 6 1 -2 9 -13 17 -24z m-1029 -49 c19 -8 67 -20 105
-27 133 -23 197 -56 212 -113 9 -34 29 -21 47 30 l13 39 11 -28 c15 -38 14
-64 -3 -120 -13 -45 -13 -47 6 -47 10 0 28 5 39 10 37 20 120 -56 105 -96 -7
-19 18 -70 39 -77 8 -4 15 -13 15 -20 0 -23 -78 -167 -121 -224 -48 -65 -74
-73 -129 -42 l-42 24 -38 -23 c-21 -12 -69 -33 -106 -46 -64 -24 -66 -24 -71
-5 -6 20 -28 26 -38 9 -3 -5 -17 -10 -31 -10 -38 0 -51 38 -35 108 37 166 28
197 -88 311 -54 53 -97 105 -111 135 l-23 48 47 41 c53 45 87 93 106 151 l12
38 22 -26 c11 -14 37 -32 57 -40z m973 -62 c9 -3 16 -10 16 -16 0 -5 -4 -7 -9
-4 -5 4 -16 3 -25 0 -19 -7 -21 -50 -3 -57 8 -4 9 -6 0 -6 -17 -1 -43 28 -43
48 0 33 29 48 64 35z m-73 -101 c7 -20 6 -21 -10 -11 -25 15 -49 4 -53 -24 -4
-22 -5 -22 -12 5 -6 18 -4 32 5 43 18 22 60 14 70 -13z m517 -373 l24 -15 -74
-72 c-86 -84 -133 -122 -287 -232 l-113 -81 -30 25 c-16 14 -35 25 -43 25 -7
0 -37 24 -67 53 -30 28 -63 57 -73 63 -18 10 -17 13 16 55 20 24 50 66 68 94
28 41 31 52 21 68 -6 10 -10 20 -8 21 42 27 60 36 72 36 9 0 31 8 50 17 32 15
37 15 53 1 22 -19 78 -38 111 -38 l24 0 -26 34 c-32 42 -34 57 -3 28 26 -24
85 -38 145 -34 41 3 42 4 27 25 -30 43 -14 39 38 -9 28 -27 63 -56 75 -64z
m359 8 c-2 -13 -4 -5 -4 17 -1 22 1 32 4 23 2 -10 2 -28 0 -40z m3 -129 c0
-71 -2 -80 -15 -69 -8 7 -12 17 -8 23 4 6 1 7 -6 3 -7 -5 -18 0 -26 10 -17 22
-20 64 -5 64 6 0 10 9 10 19 0 14 6 19 20 16 11 -2 20 0 20 6 0 5 2 9 5 9 3 0
5 -37 5 -81z m-1810 -136 c0 -2 -20 -33 -45 -67 -45 -64 -53 -89 -35 -116 7
-11 8 -7 4 15 -4 24 2 42 35 91 57 85 75 93 140 60 28 -15 49 -31 46 -35 -3
-5 15 -22 40 -38 25 -15 45 -33 45 -40 0 -34 -25 -113 -38 -118 -24 -9 -53 24
-42 46 6 10 9 33 9 51 -2 32 -2 32 -8 -7 -4 -24 -11 -39 -19 -38 -14 3 -16
-13 -2 -22 6 -3 10 -18 11 -33 0 -21 2 -23 7 -9 7 15 12 14 47 -15 26 -20 32
-23 17 -7 l-23 24 38 17 c21 10 27 15 14 12 -22 -6 -23 -4 -17 22 10 36 6 34
49 27 41 -6 48 -18 16 -28 -11 -4 -18 -9 -16 -12 3 -2 20 3 38 12 43 23 185
31 219 13 58 -31 97 -126 76 -186 -10 -29 -11 -88 -4 -272 4 -129 10 -239 11
-245 2 -5 12 5 22 23 11 18 23 32 26 32 4 0 34 -35 67 -77 l60 -77 -20 -41
c-12 -22 -51 -107 -88 -190 -75 -171 -120 -259 -150 -295 l-21 -25 16 34 c54
109 106 372 104 519 l-2 87 -7 -95 c-9 -113 -45 -337 -64 -400 -20 -65 -94
-213 -114 -228 -12 -10 -38 -12 -92 -8 -41 3 -109 2 -150 -2 -67 -8 -58 -9 82
-10 l157 -1 44 52 c85 101 114 153 200 353 55 127 136 287 161 319 l23 29 79
-54 c44 -29 90 -62 104 -72 98 -74 203 -149 248 -177 28 -18 52 -39 52 -46 0
-35 -253 -424 -345 -530 -29 -33 -78 -101 -109 -152 -31 -51 -69 -101 -84
-111 -17 -12 -59 -23 -112 -30 -47 -6 -150 -23 -230 -37 -123 -23 -170 -27
-315 -27 -263 1 -457 37 -682 124 -43 16 -74 20 -175 19 -137 -2 -179 8 -259
60 -27 17 -70 34 -103 39 -31 5 -62 12 -69 16 -9 6 -9 4 1 -8 13 -16 6 -27
-28 -42 -8 -3 -3 -4 13 -1 18 4 27 1 28 -7 0 -7 4 -3 9 9 11 28 49 31 51 6 1
-17 2 -17 6 -1 6 22 5 22 53 -2 55 -28 58 -40 11 -40 -21 0 -46 -3 -55 -6 -11
-4 -16 -1 -16 11 0 15 -2 15 -15 1 -19 -19 -91 -12 -145 13 l-35 16 2 80 2 80
-9 -64 c-5 -35 -11 -65 -14 -68 -2 -3 -17 3 -33 13 l-28 18 19 -22 c12 -13 16
-28 11 -39 -7 -17 -8 -17 -16 2 -8 18 -8 17 -6 -5 2 -30 18 -31 32 -1 13 27
16 27 50 -8 l28 -30 -235 2 c-176 2 -239 5 -251 15 -15 12 -84 147 -122 240
-10 23 -24 47 -32 53 -27 23 -11 29 85 31 l97 2 -91 3 c-50 2 -101 0 -114 -5
-19 -7 -30 -4 -53 17 -15 14 -45 35 -65 47 -19 11 -37 25 -39 30 -2 7 89 15
254 23 329 16 309 14 344 40 17 12 76 34 132 49 110 28 103 28 182 -15 57 -32
107 -53 114 -48 16 9 276 7 301 -3 33 -13 70 -49 70 -67 0 -10 -16 -15 -52
-18 -31 -2 -11 -4 46 -5 l100 -2 50 -53 51 -52 -75 -6 c-41 -4 31 -5 160 -3
146 2 264 9 310 18 41 7 67 14 58 15 -16 1 -18 12 -18 82 0 110 15 203 57 344
48 165 45 158 144 361 96 197 112 256 107 378 l-3 69 -55 13 c-30 6 -81 15
-113 19 -70 8 -76 16 -111 139 -36 122 -35 125 25 165 28 18 48 35 46 38 -3 2
-28 -12 -56 -33 -60 -45 -62 -54 -26 -169 13 -43 22 -81 20 -83 -2 -2 -22 28
-45 67 -23 39 -44 71 -47 71 -3 0 4 -16 16 -35 l21 -36 -45 37 c-24 21 -46 43
-49 49 -7 18 44 165 64 185 16 16 60 18 60 3z m297 -19 c-34 -29 -116 -34
-137 -9 -11 13 -8 15 16 15 16 1 54 7 84 14 30 7 57 11 60 9 3 -3 -8 -16 -23
-29z m96 -26 c23 -47 27 -63 20 -85 -13 -38 -55 -62 -77 -44 -12 10 -13 17 -5
27 10 12 4 74 -7 74 -3 0 -14 -9 -26 -19 -20 -20 -21 -20 -49 1 -33 24 -31 33
10 41 16 3 39 20 52 36 13 17 30 29 38 28 8 -1 28 -28 44 -59z m-212 -25 c13
-17 13 -17 -6 -3 -11 8 -22 16 -24 17 -2 2 0 3 6 3 6 0 17 -8 24 -17z m-1956
-402 c12 -39 99 -64 255 -72 80 -4 190 -17 245 -29 207 -43 451 -44 703 -5
152 24 308 76 317 106 6 18 20 19 276 19 l269 0 0 -67 c0 -38 -3 -78 -6 -90
l-6 -23 -1109 0 -1109 0 0 90 0 90 79 0 c69 0 80 -2 86 -19z m2585 12 c0 -5
-9 -23 -20 -41 -11 -18 -32 -55 -46 -83 l-26 -49 -54 0 -54 0 0 90 0 90 100 0
c55 0 100 -3 100 -7z m-540 -193 c-8 -5 -11 -10 -6 -10 5 0 3 -7 -4 -15 -7 -8
-24 -15 -39 -14 l-26 1 25 8 c23 7 23 8 3 9 -12 1 -33 -3 -47 -9 -18 -6 -29
-6 -38 3 -9 8 -51 11 -143 8 -87 -2 -123 -6 -110 -12 22 -10 -85 -5 -144 7
-28 5 -33 4 -29 -8 5 -11 -1 -13 -23 -10 -16 2 -29 8 -29 13 0 12 -27 12 -32
0 -2 -6 -109 -11 -250 -14 -163 -2 -251 -7 -260 -15 -8 -6 -25 -8 -38 -5 -20
5 -22 3 -16 -13 6 -15 5 -17 -5 -6 -7 6 -21 12 -32 12 -10 0 -15 5 -12 10 3 6
1 10 -4 10 -6 0 -11 -5 -11 -11 0 -5 -5 -7 -11 -3 -7 4 -66 8 -133 10 -66 1
-188 5 -271 8 -82 3 -231 8 -331 11 -180 4 -181 4 -214 -20 -19 -14 -34 -25
-35 -25 -1 0 -1 13 -1 30 0 20 6 32 18 36 10 3 18 10 18 15 0 5 435 9 1123 9
728 0 1117 -4 1107 -10z m430 2 c0 -12 -22 -32 -34 -32 -6 0 -4 5 4 11 11 7 7
9 -17 5 -35 -5 -56 9 -26 17 31 8 73 7 73 -1z m-682 -39 c-10 -2 -26 -2 -35 0
-10 3 -2 5 17 5 19 0 27 -2 18 -5z m-1470 -49 c25 -7 30 -24 7 -24 -9 0 -18
-7 -21 -15 -4 -8 -10 -12 -15 -9 -5 3 -7 11 -3 17 3 7 -3 2 -14 -10 -23 -26
-37 -30 -29 -9 3 8 -1 17 -9 20 -8 3 -14 12 -14 21 0 16 53 21 98 9z m-362
-10 c81 -7 81 -7 97 -42 l16 -34 -67 6 c-37 3 -106 6 -154 7 -76 2 -88 4 -88
19 0 25 39 49 80 49 19 1 71 -2 116 -5z m794 -4 c0 -5 -4 -10 -10 -10 -5 0
-10 5 -10 10 0 6 5 10 10 10 6 0 10 -4 10 -10z m-20 -24 c0 -2 -18 -40 -41
-85 -42 -84 -61 -109 -34 -44 20 46 12 52 -75 54 -36 1 -69 2 -75 4 -5 1 -35
3 -65 4 l-55 2 38 14 c21 8 50 23 64 35 22 17 40 20 134 20 60 0 109 -2 109
-4z m406 -98 c4 -7 4 -10 -1 -6 -4 4 -15 2 -24 -5 -14 -11 -14 -10 -2 6 16 20
18 21 27 5z m459 -15 c60 -22 70 -54 20 -64 -50 -11 -345 -10 -415 2 -82 13
-103 30 -67 54 59 38 367 44 462 8z m-766 -29 c1 14 6 17 24 11 12 -4 65 -13
117 -20 l95 -12 -133 -4 c-74 -2 -135 -2 -137 -1 -2 2 2 15 8 29 l12 26 6 -24
c5 -18 7 -19 8 -5z m369 -45 c61 -12 418 -8 445 5 15 7 17 3 17 -29 0 -122
-68 -344 -121 -397 -30 -30 -68 -36 -209 -30 -88 4 -124 17 -140 50 -35 76
-71 205 -77 274 -6 75 -6 77 -36 84 -36 8 -74 -18 -99 -66 -14 -27 -15 -37 -5
-49 10 -12 9 -13 -1 -7 -10 6 -11 1 -6 -21 9 -38 23 -52 17 -16 -4 23 -1 20
18 -16 18 -35 33 -49 83 -72 36 -17 53 -29 41 -30 -16 -1 -15 -2 5 -8 14 -4
27 -15 28 -25 4 -17 -1 -18 -48 -13 -92 11 -173 73 -186 143 -12 66 4 121 50
170 37 38 48 44 84 44 30 0 42 -4 45 -17 3 -10 5 -3 6 16 1 27 4 32 19 26 9
-3 41 -11 70 -16z m-369 -132 c15 -19 -40 -82 -57 -65 -7 7 -12 8 -12 2 0 -5
5 -15 12 -22 9 -9 9 -12 0 -12 -7 0 -12 5 -12 12 0 6 -3 8 -6 5 -4 -4 -1 -13
6 -22 8 -10 9 -15 1 -15 -6 0 -11 -4 -11 -10 0 -12 -116 -176 -130 -185 -17
-11 -11 5 20 51 17 24 29 44 26 44 -3 0 -19 -20 -36 -45 -33 -48 -64 -64 -35
-17 54 83 129 181 137 176 5 -3 3 -13 -4 -22 -12 -15 -11 -16 4 -4 9 8 15 19
12 27 -9 22 45 115 66 115 4 0 13 -6 19 -13z m-1075 -497 c10 -10 -18 -23 -71
-33 -32 -6 -32 -6 -21 24 10 29 13 30 47 24 20 -4 40 -11 45 -15z m94 -206
c33 -46 34 -64 4 -64 -10 0 -27 -7 -40 -15 -21 -16 -22 -15 -14 17 4 18 7 50
7 71 -1 20 2 37 5 37 3 0 21 -21 38 -46z m67 -94 c9 -17 13 -35 10 -40 -3 -4
2 -10 12 -12 12 -2 0 -22 -52 -83 -37 -44 -77 -82 -88 -83 -16 -3 -17 -6 -6
-12 28 -18 -4 -30 -49 -18 -47 12 -47 12 -28 59 7 19 17 43 21 54 4 11 10 28
11 38 12 59 32 84 85 105 69 27 66 27 84 -8z"/>
<path d="M2048 3513 c12 -2 30 -2 40 0 9 3 -1 5 -23 4 -22 0 -30 -2 -17 -4z"/>
<path d="M2128 3503 c7 -3 16 -2 19 1 4 3 -2 6 -13 5 -11 0 -14 -3 -6 -6z"/>
<path d="M2180 3490 c8 -5 22 -9 30 -9 10 0 8 3 -5 9 -27 12 -43 12 -25 0z"/>
<path d="M2231 3476 c10 -9 89 -46 89 -41 0 5 -75 45 -86 45 -4 0 -5 -2 -3 -4z"/>
<path d="M2330 3427 c0 -2 19 -17 43 -32 23 -16 37 -22 30 -14 -12 15 -73 53
-73 46z"/>
<path d="M2225 2801 c-40 -10 -66 -25 -88 -49 -18 -20 -18 -21 3 -32 18 -10
26 -8 43 8 36 33 84 52 129 52 30 1 38 3 28 9 -24 14 -82 20 -115 12z"/>
<path d="M2270 2638 c-33 -21 -34 -23 -12 -26 13 -2 32 4 43 14 10 9 32 17 48
18 39 1 28 16 -12 16 -18 0 -48 -10 -67 -22z"/>
<path d="M2300 2596 c0 -20 38 -65 70 -81 43 -22 53 -18 28 10 -12 14 -28 25
-35 25 -7 0 -13 5 -13 11 0 5 6 7 13 3 6 -4 1 5 -12 19 -26 29 -51 35 -51 13z"/>
<path d="M2268 2339 c30 -12 25 -41 -8 -50 l-25 -7 27 -1 c22 -1 29 5 34 25 7
27 -7 44 -36 43 -8 0 -5 -4 8 -10z"/>
<path d="M849 733 l-24 -28 30 25 c17 14 32 26 34 28 2 1 0 2 -6 2 -5 0 -20
-12 -34 -27z"/>
<path d="M1120 726 c0 -2 16 -14 36 -25 20 -12 69 -46 108 -75 39 -29 82 -57
96 -60 14 -4 0 7 -30 26 l-55 33 40 6 c40 6 40 6 -12 8 -28 0 -54 5 -57 10 -7
10 -111 81 -120 81 -3 0 -6 -2 -6 -4z"/>
<path d="M800 684 c-14 -7 -21 -14 -16 -14 5 0 2 -8 -5 -17 -7 -10 1 -5 19 11
43 40 43 43 2 20z"/>
<path d="M650 650 l0 -39 -87 -4 -88 -3 93 -2 92 -2 0 45 c0 25 -2 45 -5 45
-3 0 -5 -18 -5 -40z"/>
<path d="M754 655 c-3 -8 -4 -20 -2 -27 3 -7 7 -1 10 15 6 29 1 36 -8 12z"/>
<path d="M832 558 c-55 -125 -69 -175 -53 -191 10 -9 11 -8 6 4 -8 23 15 97
59 192 21 44 35 81 33 83 -2 2 -22 -37 -45 -88z"/>
<path d="M697 582 c-13 -14 -16 -29 -11 -65 5 -36 4 -47 -7 -47 -8 0 -22 -15
-32 -33 -35 -64 -59 -119 -54 -124 10 -9 65 27 90 58 l24 31 22 -36 c13 -20
25 -36 27 -36 6 0 -2 14 -29 53 -12 18 -23 57 -28 105 -7 64 -6 79 8 94 9 10
14 18 11 18 -3 0 -12 -8 -21 -18z m-3 -149 c5 -18 2 -31 -8 -42 -14 -13 -16
-13 -16 0 0 8 3 19 8 25 4 5 0 2 -9 -8 -24 -25 -30 -11 -11 23 21 36 28 36 36
2z m-35 -77 c-11 -9 -49 -26 -49 -22 0 3 5 16 11 30 10 22 13 23 27 10 8 -8
13 -16 11 -18z"/>
<path d="M2183 563 c15 -2 37 -2 50 0 12 2 0 4 -28 4 -27 0 -38 -2 -22 -4z"/>
<path d="M900 535 c-13 -14 -22 -27 -19 -29 2 -2 14 10 27 25 29 36 24 38 -8
4z"/>
<path d="M1420 545 c19 -7 49 -13 65 -13 29 0 29 0 5 7 -14 4 -43 11 -65 14
l-40 6 35 -14z"/>
<path d="M636 518 c-27 -38 -13 -75 15 -41 12 15 12 16 -3 10 -22 -8 -22 -3
-2 28 20 31 11 33 -10 3z"/>
<path d="M881 474 c0 -11 3 -14 6 -6 3 7 2 16 -1 19 -3 4 -6 -2 -5 -13z"/>
<path d="M590 1469 c0 -5 9 -9 20 -9 11 0 20 2 20 4 0 2 -9 6 -20 9 -11 3 -20
1 -20 -4z"/>
<path d="M1680 1154 c-58 -31 -75 -116 -40 -190 47 -96 186 -99 239 -4 58 103
-6 211 -123 209 -28 -1 -62 -7 -76 -15z m66 -174 c3 0 15 5 27 12 20 10 21 10
8 -5 -7 -9 -29 -19 -48 -23 -25 -5 -31 -9 -21 -15 10 -7 10 -9 -3 -9 -9 0 -22
7 -29 15 -9 11 -10 15 -1 15 7 0 12 10 11 23 -4 40 0 42 25 14 14 -15 28 -27
31 -27z"/>
<path d="M1130 1080 c0 -5 5 -10 11 -10 5 0 7 5 4 10 -3 6 -8 10 -11 10 -2 0
-4 -4 -4 -10z"/>
<path d="M90 120 c0 -6 7 -10 15 -10 8 0 15 2 15 4 0 2 -7 6 -15 10 -8 3 -15
1 -15 -4z"/>
<path d="M550 130 c0 -5 5 -10 10 -10 6 0 10 5 10 10 0 6 -4 10 -10 10 -5 0
-10 -4 -10 -10z"/>
<path d="M1390 130 c0 -5 10 -10 23 -10 18 0 19 2 7 10 -19 13 -30 13 -30 0z"/>
<path d="M1245 120 c-3 -5 2 -10 13 -10 10 0 22 -3 26 -7 12 -12 58 -15 51 -3
-3 5 -15 10 -26 10 -11 0 -29 5 -39 10 -13 7 -21 7 -25 0z"/>
<path d="M435 106 c11 -8 27 -16 35 -16 20 0 1 16 -30 25 -24 7 -24 7 -5 -9z"/>
<path d="M805 110 c28 -12 37 -12 30 0 -3 6 -16 10 -28 9 -21 0 -21 -1 -2 -9z"/>
<path d="M1094 112 c3 -5 17 -12 32 -15 30 -5 20 8 -15 18 -15 4 -21 3 -17 -3z"/>
<path d="M1020 90 c0 -5 5 -10 11 -10 5 0 7 5 4 10 -3 6 -8 10 -11 10 -2 0 -4
-4 -4 -10z"/>
<path d="M705 80 c27 -12 43 -12 25 0 -8 5 -22 9 -30 9 -10 0 -8 -3 5 -9z"/>
<path d="M1358 83 c7 -3 16 -2 19 1 4 3 -2 6 -13 5 -11 0 -14 -3 -6 -6z"/>
<path d="M396 68 c7 -10 24 -10 24 0 0 5 -7 9 -15 9 -8 0 -12 -4 -9 -9z"/>
<path d="M950 72 c0 -4 10 -9 22 -9 18 -2 20 0 8 7 -18 12 -30 13 -30 2z"/>
<path d="M1080 70 c0 -5 5 -10 10 -10 6 0 10 5 10 10 0 6 -4 10 -10 10 -5 0
-10 -4 -10 -10z"/>
<path d="M1228 73 c7 -3 16 -2 19 1 4 3 -2 6 -13 5 -11 0 -14 -3 -6 -6z"/>
<path d="M1263 68 c-3 -7 -1 -8 5 -4 7 4 12 3 12 -2 0 -15 32 -24 44 -12 8 8
6 9 -8 4 -13 -5 -17 -4 -13 3 4 6 -2 13 -13 16 -11 3 -23 0 -27 -5z"/>
<path d="M456 47 c3 -10 9 -15 12 -12 3 3 0 11 -7 18 -10 9 -11 8 -5 -6z"/>
<path d="M1145 50 c27 -12 43 -12 25 0 -8 5 -22 9 -30 9 -10 0 -8 -3 5 -9z"/>
<path d="M350 40 c20 -13 43 -13 35 0 -3 6 -16 10 -28 10 -18 0 -19 -2 -7 -10z"/>
<path d="M598 43 c7 -3 16 -2 19 1 4 3 -2 6 -13 5 -11 0 -14 -3 -6 -6z"/>
<path d="M1058 33 c7 -3 16 -2 19 1 4 3 -2 6 -13 5 -11 0 -14 -3 -6 -6z"/>
<path d="M658 23 c7 -3 16 -2 19 1 4 3 -2 6 -13 5 -11 0 -14 -3 -6 -6z"/>
<path d="M870 26 c0 -2 9 -6 20 -9 11 -3 18 -1 14 4 -5 9 -34 13 -34 5z"/>
<path d="M697 9 c7 -7 15 -10 18 -7 3 3 -2 9 -12 12 -14 6 -15 5 -6 -5z"/>
<path d="M1115 10 c11 -5 29 -8 40 -8 16 0 15 2 -5 8 -34 11 -60 11 -35 0z"/>
</g>
</svg>
